<svg id="Layer_1" data-name="Layer 1" xmlns="http://www.w3.org/2000/svg" viewBox="0 0 595.28 841.89"><defs><style>.cls-1{fill:#d1ac57;}</style></defs><title>Artboard 1</title><polygon class="cls-1" points="324.55 470.73 328.09 474.26 335.69 481.86 324.55 492.99 320.45 497.12 313.79 503.76 305.21 512.33 303.02 514.52 297.62 519.95 292.26 514.59 282.41 504.73 281.49 505.62 274.79 512.33 281.49 519.06 282.38 519.95 290 527.57 292.26 529.82 297.62 535.16 303.02 529.76 305.24 527.57 312.83 519.95 324.55 508.23 328.07 504.73 335.66 497.12 343.3 489.48 350.92 481.86 343.3 474.24 335.69 466.65 328.09 459.03 320.47 466.65 324.55 470.73"/><path class="cls-1" d="M290,466.37l-15.21,15.21,6.7,6.71.89.91,9.88,9.88,5.36,5.36L303,499l2.21-2.21,7.6-7.62.95-.93,6.67-6.66-15.24-15.24,7.64-7.64,11.7-11.7V303.23l-4.08-4.1-6.69-6.68V442.61l-.93.91-7.59,7.62L303,453.35l-5.4,5.4-5.36-5.36-10.77-10.76V292.42l-6.68,6.71-4.08,4.06V447.08l11.65,11.65ZM297.6,474l5.4,5.4,2.21,2.22L303,483.8l-5.4,5.4-5.36-5.36L290,481.58l2.26-2.25Z"/><polygon class="cls-1" points="303 438.11 303 281.66 297.62 276.3 292.24 281.66 292.24 438.11 297.62 443.5 303 438.11"/><polygon class="cls-1" points="251.96 474.26 244.34 481.86 251.96 489.48 259.55 497.12 267.17 504.71 270.73 501.15 274.79 497.12 259.55 481.88 267.17 474.26 270.73 470.7 274.79 466.65 267.17 459.03 259.55 466.65 251.96 474.26"/><polygon class="cls-1" points="381.38 481.84 381.38 481.86 373.74 489.48 350.92 512.32 343.31 519.93 305.26 557.98 297.65 565.59 290 557.98 282.38 550.38 274.79 542.77 267.18 535.17 259.56 527.54 251.95 519.93 229.13 497.11 221.51 489.48 213.9 481.86 221.51 474.25 229.13 466.63 236.72 459.02 244.33 451.43 249.18 446.58 249.18 359.71 254.57 354.37 259.95 359.71 259.95 451.07 254.57 456.44 236.72 474.27 229.13 481.88 290 542.77 297.63 550.38 320.45 527.54 328.05 519.93 335.66 512.32 343.29 504.72 350.9 497.11 358.5 489.48 366.11 481.88 358.5 474.27 350.9 466.65 343.29 459.06 335.66 451.44 335.29 451.07 335.29 359.71 340.67 354.37 346.06 359.71 346.06 446.56 350.92 451.43 373.74 474.25 381.38 481.84"/><rect class="cls-1" x="249.2" y="326.46" width="10.77" height="10.74" transform="translate(-160.08 277.21) rotate(-45)"/><rect class="cls-1" x="335.31" y="326.46" width="10.77" height="10.74" transform="translate(-134.85 338.1) rotate(-45)"/></svg>